<?xml version="1.0" standalone="no"?>
<!DOCTYPE svg PUBLIC "-//W3C//DTD SVG 20010904//EN"
 "http://www.w3.org/TR/2001/REC-SVG-20010904/DTD/svg10.dtd">
<svg version="1.0" xmlns="http://www.w3.org/2000/svg"
 width="106.000000pt" height="75.000000pt" viewBox="0 0 106.000000 75.000000"
 preserveAspectRatio="xMidYMid meet">

<g transform="translate(0.000000,75.000000) scale(0.100000,-0.100000)"
fill="#000000" stroke="none">
<path d="M495 641 l-460 -57 -3 -218 -2 -218 37 6 c33 5 509 63 798 96 50 6
102 13 118 16 l27 6 0 214 0 214 -27 -1 c-16 -1 -235 -27 -488 -58z m489 -18
c-2 -21 -6 -104 -10 -185 -5 -111 -9 -148 -19 -148 -16 0 -22 14 -30 84 -4 31
-11 58 -15 61 -4 2 -10 -21 -14 -52 -10 -81 -16 -103 -32 -103 -9 0 -14 12
-15 33 0 17 -4 97 -8 177 -7 106 -6 147 3 152 17 11 25 -19 25 -95 1 -43 5
-66 11 -62 6 3 10 42 10 86 0 71 2 80 18 77 14 -3 18 -18 22 -88 6 -96 20 -78
20 26 0 62 4 74 26 74 8 0 11 -12 8 -37z m-174 -167 c-1 -159 -6 -181 -46
-188 -12 -1 -28 3 -37 11 -15 11 -17 36 -17 165 0 159 5 180 45 188 11 3 28
-2 38 -10 15 -13 17 -34 17 -166z m-142 152 c16 -16 16 -130 0 -146 -9 -9 -9
-15 0 -24 19 -19 16 -174 -3 -182 -13 -4 -15 9 -15 84 0 83 -1 90 -20 90 -19
0 -20 -7 -20 -90 0 -73 -3 -90 -15 -90 -13 0 -15 27 -15 179 0 134 3 181 13
184 23 10 63 7 75 -5z m-128 -183 c0 -158 -2 -185 -15 -185 -12 0 -15 17 -15
90 0 72 -3 90 -15 90 -11 0 -15 -19 -17 -92 -2 -62 -7 -93 -15 -96 -10 -3 -13
38 -13 182 0 159 2 186 15 186 12 0 15 -15 15 -75 0 -60 3 -75 15 -75 12 0 15
15 15 73 0 71 4 87 22 87 4 0 8 -83 8 -185z m-148 148 c22 -20 24 -63 3 -63
-8 0 -15 9 -15 20 0 11 -7 20 -15 20 -12 0 -15 -13 -15 -59 0 -54 2 -59 25
-65 24 -6 25 -9 25 -87 0 -87 -10 -119 -39 -119 -45 0 -71 90 -28 98 14 3 17
-4 17 -32 0 -20 5 -36 10 -36 6 0 10 32 10 75 0 57 -3 75 -14 75 -26 0 -38 30
-38 90 0 44 5 66 17 80 22 24 33 25 57 3z m-118 -19 c3 -9 6 -85 6 -169 0
-126 -3 -156 -16 -169 -18 -19 -45 -21 -62 -4 -17 17 -17 329 0 346 17 17 65
15 72 -4z m-136 -6 c18 -18 15 -68 -3 -68 -8 0 -15 9 -15 20 0 11 -7 20 -15
20 -13 0 -15 -23 -15 -150 0 -132 2 -150 16 -150 14 0 16 12 12 89 -4 80 -2
90 14 94 16 5 18 -3 18 -92 0 -102 -7 -121 -45 -121 -41 0 -45 16 -45 177 0
140 2 155 20 173 23 23 41 25 58 8z"/>
<path d="M740 450 c0 -143 1 -150 20 -150 19 0 20 7 20 150 0 143 -1 150 -20
150 -19 0 -20 -7 -20 -150z"/>
<path d="M623 578 c-17 -21 -11 -113 7 -113 11 0 16 14 18 54 3 56 -7 81 -25
59z"/>
<path d="M220 385 c0 -133 2 -154 15 -149 22 9 22 304 0 304 -13 0 -15 -24
-15 -155z"/>
<path d="M598 163 c7 -3 16 -2 19 1 4 3 -2 6 -13 5 -11 0 -14 -3 -6 -6z"/>
<path d="M479 98 c4 -28 6 -29 9 -9 2 13 0 27 -5 32 -6 6 -7 -3 -4 -23z"/>
<path d="M421 94 c0 -11 3 -14 6 -6 3 7 2 16 -1 19 -3 4 -6 -2 -5 -13z"/>
</g>
</svg>
