<svg xmlns="http://www.w3.org/2000/svg" width="300" height="90" viewBox="0 0 361.6 90.2"><g font-size="9pt" style="fill:none;stroke-width:0.3mm;stroke:#000"><path d="M43.6 50.6L42.7 49.7A278.8 278.8 0 0 1 30.3 59 255.1 255.1 0 0 1 29.5 59.6 93 93 0 0 1 15.4 67.7Q14.6 67.5 14 67.6A6 6 0 0 0 12.6 67.9 12.8 12.8 0 0 1 11.7 68.2 15.1 15.1 0 0 1 11.3 68.4 5.8 5.8 0 0 1 10.3 68.5 5 5 0 0 1 9.9 68.6Q7.9 68.6 6.1 67.8 4.3 67 2.9 65.7A9.7 9.7 0 0 1 0.8 62.6 9 9 0 0 1 0 58.9Q0 53 2.5 47.5A59.4 59.4 0 0 1 8.6 37 89.6 89.6 0 0 1 16.7 27.4 3904.7 3904.7 0 0 1 20.9 23 3015.2 3015.2 0 0 1 24.8 19L22.2 17.3 23 16.5Q24.5 16.6 25.7 16.4A9.9 9.9 0 0 0 27 16.1 31.2 31.2 0 0 0 29.7 15.1 27.9 27.9 0 0 0 30.3 14.8Q31.8 14.2 33.4 13.6A9.7 9.7 0 0 1 35.8 13 12 12 0 0 1 37 13L38.2 13A4 4 0 0 1 38.7 13Q38.9 13 39.1 13.1A2.4 2.4 0 0 1 39.2 13.1Q39.6 13.3 39.9 13.7 40.1 14.1 40.1 14.7A0.3 0.3 0 0 1 40.1 14.9Q39.9 15.2 38.9 15.9A26.9 26.9 0 0 1 38.6 16.2 214.8 214.8 0 0 1 37.7 16.8Q36.4 17.7 34.4 19.1 31.8 20.9 28.5 23.3A99 99 0 0 0 23.9 27 116.7 116.7 0 0 0 21.7 28.8 96.9 96.9 0 0 0 15 35.3 64.4 64.4 0 0 0 9.1 42.5 36 36 0 0 0 4.9 50.4Q3.3 54.5 3.3 58.7 3.3 60.4 4 61.4 4.7 62.4 5.7 63.1 6.7 63.8 8.1 64A14.2 14.2 0 0 0 10.6 64.3 13.2 13.2 0 0 0 10.6 64.3 18.5 18.5 0 0 0 15.8 63.5 25 25 0 0 0 19.6 62Q24.3 59.8 28.7 56.5 33.1 53.3 37 49.6A170.4 170.4 0 0 0 40.1 46.5Q41.5 45.1 42.8 43.7A94.6 94.6 0 0 0 43.6 42.9 3.6 3.6 0 0 0 43.9 42.5Q44.1 42.2 44.2 42A1.8 1.8 0 0 0 44.3 41.7Q44.4 41.1 44.4 40.3A2 2 0 0 0 44.4 40.2Q44.4 40.1 44.4 40A4.6 4.6 0 0 0 44.4 39.8L44.3 39.6A72.4 72.4 0 0 0 40.8 40.3 60.2 60.2 0 0 0 38.9 40.9Q36.3 41.6 33.8 42.4A107.8 107.8 0 0 0 29 44.2Q26.6 45.1 23.9 46.3L23.7 46.3A0.1 0.1 0 0 1 23.7 46.3Q23.6 46.4 23.5 46.4A1.5 1.5 0 0 1 23.4 46.4Q22.7 46.4 22.4 45.8A2.8 2.8 0 0 1 22.1 45.1 2.4 2.4 0 0 1 22.1 44.6 1.7 1.7 0 0 1 22.3 43.8Q22.6 43.2 23.4 42.7A7.8 7.8 0 0 1 23.7 42.4 19.1 19.1 0 0 1 25.7 41.2 24.8 24.8 0 0 1 27.4 40.4Q29.6 39.5 31.7 38.8 33.9 38.1 35 37.8A69.2 69.2 0 0 1 35 37.8Q35.2 37.7 36.5 37.4A245.7 245.7 0 0 1 36.7 37.3 574.6 574.6 0 0 0 38.1 36.9 667.4 667.4 0 0 0 39.6 36.5 115.8 115.8 0 0 1 41.2 36.1 93.7 93.7 0 0 1 42.6 35.7L44.3 35.3Q45.1 35.1 45.7 34.6L46.9 33.7A12.5 12.5 0 0 1 47.8 33.1 11.1 11.1 0 0 1 48 33Q48.6 32.6 49.5 32.6A4.4 4.4 0 0 1 50.2 32.7 3.9 3.9 0 0 1 50.4 32.7 0.8 0.8 0 0 1 50.8 32.9Q51 33.1 51.2 33.5A3 3 0 0 1 51.2 33.5L66.5 33.5A0.4 0.4 0 0 1 66.6 33.5Q66.7 33.5 66.9 33.6A10.8 10.8 0 0 1 67 33.6 10.4 10.4 0 0 1 67.5 33.7 12.9 12.9 0 0 1 67.8 33.8Q68.2 34 68.4 34.1A3.8 3.8 0 0 1 68.6 34.1Q68.8 34.3 69 34.3A0.5 0.5 0 0 0 69 34.3Q69 34.4 69.1 34.5L69.1 34.6 69.1 34.8 69.1 34.9 69.1 35.1Q69 35.2 69 35.3A1 1 0 0 1 69 35.4Q68.9 35.5 68.7 35.7A4.4 4.4 0 0 1 68.7 35.7Q68.4 36 68.3 36A0.1 0.1 0 0 1 68.3 36 13.1 13.1 0 0 0 67.8 36Q67.1 36.1 66 36.2A97.2 97.2 0 0 0 65.7 36.2Q63.9 36.3 61.8 36.5A246.4 246.4 0 0 1 59.8 36.6 203.4 203.4 0 0 1 58 36.7 85.3 85.3 0 0 0 57.2 36.8Q56.2 36.8 55.7 36.9A8.1 8.1 0 0 0 55.5 36.9 18.1 18.1 0 0 0 54.2 37.1Q53 37.4 52.2 37.8A5 5 0 0 0 52.1 37.8 2.8 2.8 0 0 0 51.3 38.5Q51 38.9 50.7 39.4A7.5 7.5 0 0 0 50.3 40.3Q49.2 43.9 48.6 47 48 50.1 47.8 53A72.1 72.1 0 0 0 47.6 58.3 79.1 79.1 0 0 0 47.6 59.1L47.6 65.9 47.6 68.3A138.8 138.8 0 0 0 47.6 71 156.4 156.4 0 0 0 47.6 71.9 1051.5 1051.5 0 0 0 47.7 73.8 856.2 856.2 0 0 0 47.7 75.5 218 218 0 0 1 47.7 76.3Q47.8 77.2 47.8 77.7A22.6 22.6 0 0 1 47.8 77.8 8.2 8.2 0 0 0 47.8 78.2Q47.9 78.8 48.2 79.9A525.1 525.1 0 0 0 48.6 81.4 607.2 607.2 0 0 0 49.1 83 48.5 48.5 0 0 1 49.6 85.1 41 41 0 0 1 49.8 86 46.2 46.2 0 0 0 49.9 86.7Q50.1 87.6 50.3 88.1A0.6 0.6 0 0 1 50.3 88.2Q50.4 88.5 50.4 89.1 50.5 89.8 50.5 90.1A5 5 0 0 1 50.5 90.2 3.6 3.6 0 0 1 47.9 89.1 4.6 4.6 0 0 1 47.8 89.1 8.5 8.5 0 0 1 46.7 87.6Q46.3 86.9 45.9 86.1A13.9 13.9 0 0 1 45.9 86 19.6 19.6 0 0 1 45 83.4 23.8 23.8 0 0 1 44.7 81.9 55.9 55.9 0 0 1 44 77.8 51.4 51.4 0 0 1 44 77.5 79.8 79.8 0 0 1 43.8 75.5 58.7 58.7 0 0 1 43.7 73.6Q43.6 72.3 43.6 71.5A22 22 0 0 1 43.6 71Q43.5 69.9 43.4 67.4A198.7 198.7 0 0 1 43.4 66.9 330.8 330.8 0 0 1 43.4 64 400.2 400.2 0 0 1 43.4 60.8 400.2 400.2 0 0 1 43.4 57.6 330.8 330.8 0 0 1 43.4 54.6Q43.5 51.8 43.6 50.6Z" vector-effect="non-scaling-stroke"/><path d="M63.1 44.5A49.7 49.7 0 0 0 63.1 45Q62.5 48.2 62.5 50.9A34.8 34.8 0 0 0 62.7 54.2 26.2 26.2 0 0 0 63.2 57.8Q64 60.8 65.7 63A10.4 10.4 0 0 0 67.1 64.5 11.5 11.5 0 0 0 70.2 66.4 12.4 12.4 0 0 0 71.5 66.9Q72.7 67.2 74.2 67.4A24.9 24.9 0 0 0 77.1 67.6 34.6 34.6 0 0 0 83.4 67 32.2 32.2 0 0 0 89.6 65.2Q92.7 64 95.4 62.2A21.9 21.9 0 0 0 100 58.1Q102.1 55.8 103.2 52.8A15.8 15.8 0 0 0 103.8 51.1 17.5 17.5 0 0 0 104.4 46.5Q104.4 45.2 104.2 43.7A31.3 31.3 0 0 0 103.8 41.1 37.5 37.5 0 0 0 103.5 39.9 42 42 0 0 0 102 35 43.8 43.8 0 0 0 99.1 29 26.6 26.6 0 0 0 98.5 27.9 23.2 23.2 0 0 0 95.3 23.9 20.6 20.6 0 0 0 90.4 20.3 12 12 0 0 0 84.7 18.8 16.6 16.6 0 0 0 84.4 18.9 14.2 14.2 0 0 0 78 20.4 19.4 19.4 0 0 0 77.2 20.9 20.8 20.8 0 0 0 72.5 24.6 29.4 29.4 0 0 0 72.4 24.7 31.4 31.4 0 0 0 68.1 30.6Q66.2 33.9 65 37.5A35.8 35.8 0 0 0 65 37.5 48.4 48.4 0 0 0 63.1 44.5ZM79.6 23.1L79.6 23.6 79.6 24A0.3 0.3 0 0 0 79.6 24.1Q79.6 24.2 79.7 24.5 79.9 24.9 80.1 25.3A5.8 5.8 0 0 1 80.3 25.8 4.4 4.4 0 0 1 80.4 26.2Q80.5 26.6 80.5 26.7A2.5 2.5 0 0 1 80.4 27.2Q80.4 27.5 80.2 27.7A1.3 1.3 0 0 1 80 28 3 3 0 0 1 78.9 28.6 8 8 0 0 1 77.9 28.8 9.4 9.4 0 0 1 77.5 28.9Q76.8 29 76.2 29.2 72.9 30.6 70.9 33.3 68.9 36 67.8 39.4A33.3 33.3 0 0 0 66.3 46.4Q65.9 50 65.9 53 65.9 55.8 66.8 57.8A8.7 8.7 0 0 0 68.1 59.9 7.6 7.6 0 0 0 69.2 61 9.4 9.4 0 0 0 71.9 62.4 11.4 11.4 0 0 0 72.9 62.7 17.6 17.6 0 0 0 75.5 63.2 22.9 22.9 0 0 0 77.7 63.3 38.4 38.4 0 0 0 86 62.4Q90.2 61.4 93.6 59.3 96.9 57.2 99 54 101.1 50.7 101.1 46A19.1 19.1 0 0 0 100.9 43.6Q100.7 41.5 100 39A35.4 35.4 0 0 0 96.8 31.2Q94.7 27.4 91.7 24.9A10.9 10.9 0 0 0 88.8 23 9.4 9.4 0 0 0 85.2 22.3 31.2 31.2 0 0 0 84 22.3Q83.5 22.3 83 22.3A14.1 14.1 0 0 0 82.4 22.4 9.1 9.1 0 0 0 81.5 22.6Q81.1 22.7 80.6 22.8A21.8 21.8 0 0 0 79.6 23.1Z" vector-effect="non-scaling-stroke"/><path d="M123.1 38.6L123.1 38.7 123.1 38.9A1.6 1.6 0 0 1 123.1 39.4Q122.9 39.9 122.5 40.1A1.7 1.7 0 0 1 122.4 40.1 5.1 5.1 0 0 1 121.8 40.4Q121.2 40.6 120.5 40.8A41.3 41.3 0 0 1 118.8 41.1 48.5 48.5 0 0 1 118 41.2 10.4 10.4 0 0 0 115.5 41.9 5.2 5.2 0 0 0 114.3 42.6 4.5 4.5 0 0 0 113.6 43.3Q112.9 44.1 112.9 45.7A5.1 5.1 0 0 0 113.4 47.8Q113.7 48.6 114.3 49.3A11.2 11.2 0 0 0 114.9 50.1 20.9 20.9 0 0 0 117.4 52.4 28.5 28.5 0 0 0 120.2 54.3Q123.3 56.3 127.2 58A89.3 89.3 0 0 0 133 60.2 78.3 78.3 0 0 0 134.9 60.9 76.3 76.3 0 0 0 138.2 61.9Q139.8 62.3 141.2 62.7A45.3 45.3 0 0 0 141.6 62.7 37.5 37.5 0 0 0 143.1 63Q145 63.4 146.2 63.3A1.2 1.2 0 0 0 146.4 63.3Q146.6 63.2 147.1 63.1A12 12 0 0 0 147.2 63 42.2 42.2 0 0 0 148.3 62.6 47.4 47.4 0 0 0 148.7 62.5 74.9 74.9 0 0 0 150.2 61.9 68.9 68.9 0 0 0 150.2 61.9Q150.9 61.7 151.2 61.5A5.3 5.3 0 0 1 151.3 61.5 3 3 0 0 1 151.3 61.4Q151.3 61.2 151.3 60.9A44.4 44.4 0 0 1 151.3 60.7Q151.4 60.2 151.4 60A2.7 2.7 0 0 0 151.4 59.9 7.8 7.8 0 0 0 151.3 59Q151.3 58.5 151.2 58.1A4.2 4.2 0 0 0 151.1 57.9 6 6 0 0 0 150.2 56.3 8.2 8.2 0 0 0 149.6 55.5 11 11 0 0 0 148.9 54.8 31.6 31.6 0 0 1 148.2 54.2Q147.9 54 147.6 53.7A58.6 58.6 0 0 1 147 53L144.3 50.4Q142.7 48.8 140.6 46.7A706.8 706.8 0 0 0 140.3 46.4 707.8 707.8 0 0 0 136.8 43 814.6 814.6 0 0 0 135.6 41.8 559.7 559.7 0 0 0 131.9 38.4 501.8 501.8 0 0 0 130.8 37.3 394.9 394.9 0 0 1 128.8 35.4Q127.9 34.6 127.2 33.8A219.7 219.7 0 0 1 126.7 33.4Q124.9 31.6 124 30.8A40.6 40.6 0 0 1 121.4 27 31.3 31.3 0 0 1 119.6 23.6 17.4 17.4 0 0 1 118.2 19 22.9 22.9 0 0 1 118 15.5 18 18 0 0 1 118.5 10.9 15.5 15.5 0 0 1 119.6 8.1 11.9 11.9 0 0 1 122.9 4 15.8 15.8 0 0 1 124.9 2.6L125.7 2.6 127 2.6 128.3 2.6 129.1 2.6A16.4 16.4 0 0 1 132.6 3 21 21 0 0 1 134.9 3.7Q137.9 4.7 140.4 6.5A16.2 16.2 0 0 1 144.6 11 10.6 10.6 0 0 1 146.3 16.8 4.6 4.6 0 0 1 146.3 17Q146.3 17.4 146.2 18A1.3 1.3 0 0 1 146.1 18.4Q145.9 18.8 145.3 18.8A3.9 3.9 0 0 1 142.7 17.9Q141.6 17 140.6 15.6A16.4 16.4 0 0 1 140.6 15.5 55.8 55.8 0 0 1 138.6 12.5Q137.6 10.8 136.4 9.4A10.5 10.5 0 0 0 133.5 7 7 7 0 0 0 130.6 6.1 8.6 8.6 0 0 0 129.9 6.1 5.6 5.6 0 0 0 127.7 6.5 7.4 7.4 0 0 0 126.8 7Q125.2 7.9 124 9.3A12.2 12.2 0 0 0 122.1 12.3Q121.4 13.9 121.4 15.4A5.9 5.9 0 0 0 121.4 15.4 17.3 17.3 0 0 0 121.7 18.7 20.2 20.2 0 0 0 122 19.9 21.1 21.1 0 0 0 123.6 24.3Q124.7 26.4 126.1 28.3A31.8 31.8 0 0 0 128.6 31.2 28.7 28.7 0 0 0 129.1 31.7L152.1 53.9A9 9 0 0 1 153.6 55.6 12.4 12.4 0 0 1 154.6 57.3 11.4 11.4 0 0 1 155.4 59.2 8.3 8.3 0 0 1 155.7 61.4 6 6 0 0 1 155.5 62.9 4.8 4.8 0 0 1 155 64.2Q154.3 65.3 153.2 66.1A7.2 7.2 0 0 1 151.5 66.9 8.7 8.7 0 0 1 150.7 67.1 12.2 12.2 0 0 1 147.9 67.5L147 67.5Q146.2 67.4 144.5 66.9A87.7 87.7 0 0 0 141.1 66.1 1101.6 1101.6 0 0 1 139.4 65.7 881.5 881.5 0 0 1 137.8 65.4 420.5 420.5 0 0 1 137.3 65.3Q136.3 65 135.9 64.9A35.3 35.3 0 0 1 134.9 64.6Q133.6 64.1 131.8 63.4A89 89 0 0 1 129.1 62.3 117.1 117.1 0 0 1 126.2 61 78.5 78.5 0 0 1 121.2 58.4 88.1 88.1 0 0 1 120 57.8 43.8 43.8 0 0 1 116.1 55.2 37 37 0 0 1 114.4 53.9 26.9 26.9 0 0 1 112 51.7 20.8 20.8 0 0 1 110.3 49.7Q108.7 47.5 108.7 45.4A6.8 6.8 0 0 1 108.9 43.6 5.3 5.3 0 0 1 109.9 41.7 8.9 8.9 0 0 1 112.9 39.3 14.5 14.5 0 0 1 116.4 38 16.2 16.2 0 0 1 116.7 38 23.1 23.1 0 0 1 118.8 37.7 17.8 17.8 0 0 1 120.5 37.6Q120.9 37.6 121.9 38A24.2 24.2 0 0 1 122.3 38.2Q122.8 38.4 123.1 38.5A1.7 1.7 0 0 1 123.1 38.6Z" vector-effect="non-scaling-stroke"/><path d="M195 23.1L193.8 23.1A72.8 72.8 0 0 1 188.3 25.8 420.3 420.3 0 0 1 182.6 28.2 290.8 290.8 0 0 0 177 30.6 50.1 50.1 0 0 0 171.6 33.4L171.6 34.1 171.6 35.3 171.6 36.5 171.6 37.2A127.5 127.5 0 0 0 171.9 46.5 55 55 0 0 0 173.3 55.6 0.2 0.2 0 0 0 173.4 55.6Q173.4 55.8 173.6 56.2A25.7 25.7 0 0 0 173.7 56.4Q174 57.1 174.2 57.3A0.7 0.7 0 0 0 174.2 57.3L174.2 57.7 174.2 58.1A2.6 2.6 0 0 1 174.1 58.8 3.5 3.5 0 0 1 173.9 59.3Q173.7 59.9 173.1 59.9A1.6 1.6 0 0 1 172.9 60 1.5 1.5 0 0 1 171.9 59.6Q171.6 59.4 171.4 59.1A4.2 4.2 0 0 1 171.1 58.7Q170.5 57.6 170 56.1A20.3 20.3 0 0 1 169.9 55.5 32.6 32.6 0 0 1 169.3 53 38.9 38.9 0 0 1 169 51.4 59.1 59.1 0 0 1 168.7 49 47 47 0 0 1 168.5 47.3 116.2 116.2 0 0 1 168.4 46Q168.4 45.4 168.4 45A56.1 56.1 0 0 1 168.3 44.1L168.3 42.8A12.4 12.4 0 0 1 168.1 42.1Q168 41.6 167.9 40.9 167.8 39.7 167.7 38.7A75 75 0 0 0 167.6 37.9Q167.5 37.3 167.5 36.8L167.4 36 166.5 34.8 159.7 34.8 158.9 32.5A12.9 12.9 0 0 1 160.2 31.8 9.8 9.8 0 0 1 161.5 31.4 10.7 10.7 0 0 0 162.7 31 7.8 7.8 0 0 0 163.7 30.5 4.4 4.4 0 0 0 164.8 29.7 4 4 0 0 0 165.2 29.2 2.8 2.8 0 0 0 165.5 28.5Q165.7 27.8 165.7 26.8A9.9 9.9 0 0 0 165.7 26.7Q165.7 24.6 165.2 22.5 164.6 20.4 164 18.4 163.4 16.4 162.8 14.4A15.6 15.6 0 0 1 162.3 12.1 12.6 12.6 0 0 1 162.2 10.5 7.3 7.3 0 0 1 162.3 9.6 9.1 9.1 0 0 1 162.4 9 6.5 6.5 0 0 1 162.6 8.1 5.4 5.4 0 0 1 162.8 7.6Q163.1 6.9 163.5 6.5A1.4 1.4 0 0 1 164.1 6.2Q164.3 6.1 164.6 6.1A3.1 3.1 0 0 1 164.8 6.1Q166.1 6.1 166.8 7.7 167.5 9.4 167.9 11.9A57.9 57.9 0 0 1 168.3 15.1 69.1 69.1 0 0 1 168.5 17.2 85 85 0 0 0 168.8 20.6 70.8 70.8 0 0 0 169 22.5 34.3 34.3 0 0 0 169.3 24.3Q169.4 25.1 169.6 25.8A16 16 0 0 0 169.9 26.7Q170.1 27.5 170.6 27.9A1.4 1.4 0 0 0 171.6 28.3 6.4 6.4 0 0 0 172.2 28.3Q172.6 28.3 172.8 28.2A3 3 0 0 0 173.2 28.1Q173.8 27.8 175.1 27.4A29.2 29.2 0 0 1 176 27.1Q176.9 26.7 178.2 26.3A83 83 0 0 0 180.1 25.6 102 102 0 0 0 182.2 24.9 69.6 69.6 0 0 0 186.6 23Q188.8 22 190.6 20.7A21.2 21.2 0 0 0 192.5 19.1 17 17 0 0 0 193.8 17.9 7.5 7.5 0 0 0 195 16 6.6 6.6 0 0 0 195.5 14.6 14.9 14.9 0 0 0 195.6 14.2Q195.6 13.3 195.7 12 195.7 10.2 196 8.3A11.1 11.1 0 0 1 196.4 6.5 8.8 8.8 0 0 1 197.1 5 3 3 0 0 1 197.7 4.2Q198.3 3.7 199.2 3.6A3.3 3.3 0 0 1 199.4 3.6 1.3 1.3 0 0 1 200.4 4.1 1.8 1.8 0 0 1 200.5 4.2 4 4 0 0 1 201 5 5.2 5.2 0 0 1 201.2 5.6 6 6 0 0 1 201.4 6.7 5.2 5.2 0 0 1 201.5 7.2L201.5 8.5 201.5 9.1 201.5 10 201.5 10.8 201.5 11.2 201.2 15.9A7709 7709 0 0 0 201 19Q200.9 20.9 200.7 23A1258.7 1258.7 0 0 0 200.5 27.1 1473.2 1473.2 0 0 0 200.2 31.3 469.7 469.7 0 0 1 200 35.6 394.5 394.5 0 0 1 199.7 39.6 678 678 0 0 0 199.4 43.3Q199.3 45 199.2 46.5A405.9 405.9 0 0 0 199.2 46.7 154 154 0 0 1 199.1 48.1Q199 50.1 198.8 51.2A20.5 20.5 0 0 1 198.8 51.3 5.4 5.4 0 0 0 198.8 51.6Q198.9 52 199 52.9A50.5 50.5 0 0 0 199 53Q199.1 54.2 199.3 55.6 199.4 56.9 199.6 58.2A41.1 41.1 0 0 1 199.6 58.7Q199.7 59.5 199.7 59.8A3.5 3.5 0 0 1 199.7 59.9 6.9 6.9 0 0 0 200.4 61.9Q200.9 62.8 201.3 63.8L202.2 65.7A5 5 0 0 1 202.6 67.5 6 6 0 0 1 202.6 67.9 3.2 3.2 0 0 1 201 67.4Q200.6 67.2 200.1 66.8A6.8 6.8 0 0 1 199.8 66.5Q198.4 65 197.4 63.1A28.3 28.3 0 0 1 195.9 59.8 25.7 25.7 0 0 1 195.7 59.3 18.1 18.1 0 0 1 195.4 58.3Q195.1 57.4 195 56.7A4 4 0 0 1 195 56.3L195 23.1Z" vector-effect="non-scaling-stroke"/><path d="M216.7 49.5L215.9 49.5A0.1 0.1 0 0 0 215.9 49.5Q215.8 49.6 215.7 50.1L215.5 51.6 215.2 53.3 214.9 54.8A2.9 2.9 0 0 0 214.9 55Q214.8 55.4 214.7 56.4A88.7 88.7 0 0 1 214.6 57.7 105.6 105.6 0 0 1 214.5 59 122 122 0 0 0 214.4 60.3 96.5 96.5 0 0 0 214.3 61.5Q214.2 62.4 214.2 63A9.8 9.8 0 0 0 214.2 63.3L213.8 63.7A4 4 0 0 0 213.6 63.8Q213.4 64 213.4 64.2L213.1 64.2 212.9 64.2 212.6 64.2 212.4 64.2 211.5 63.3A21.5 21.5 0 0 1 211.3 63Q210.8 62.6 210.7 62.4A15 15 0 0 1 210.6 61.9Q210.5 61.2 210.3 60A126.9 126.9 0 0 1 210.2 59.7 136 136 0 0 0 209.8 57.7 158.1 158.1 0 0 0 209.4 55.6 158.1 158.1 0 0 1 209 53.5 136 136 0 0 1 208.6 51.5Q208.3 49.7 208.1 48.9A10.8 10.8 0 0 0 208.1 48.7L208.1 48Q208.1 47.4 208.1 46A372.7 372.7 0 0 0 208.1 45.3 291 291 0 0 0 208 43.8Q208 43.1 208 42.3A523.2 523.2 0 0 0 207.9 40.7 1393.7 1393.7 0 0 1 207.8 38 1631.8 1631.8 0 0 1 207.7 35.2Q207.6 32.2 207.6 29.6A194.8 194.8 0 0 0 207.5 27.7Q207.5 27 207.5 26.3A108.1 108.1 0 0 0 207.4 25 176.3 176.3 0 0 1 207.4 24.2Q207.3 23.2 207.3 22.7A15.1 15.1 0 0 1 207.3 22.4L207.3 21.8A22.4 22.4 0 0 1 208.7 14 24.9 24.9 0 0 1 212.6 7Q215.1 3.9 218.6 2A15.2 15.2 0 0 1 226.2 0Q228.4 0 230.6 0.9 232.7 1.8 234.4 3.2A11.5 11.5 0 0 1 237.1 6.7Q238.1 8.8 238.1 11.1 238.1 14.6 236.4 17.7 234.8 20.8 232.3 23.5A57.8 57.8 0 0 1 226.9 28.7Q224 31.2 221.5 33.3 219.3 35.2 217.7 37A27.1 27.1 0 0 0 217.4 37.4Q216.3 38.7 215.9 39.9A4.1 4.1 0 0 0 215.7 41.1 3.7 3.7 0 0 0 215.9 42.3Q216.1 42.8 216.4 43.3A9.2 9.2 0 0 0 216.9 44.2 20.9 20.9 0 0 0 218.3 45.9Q219.1 46.8 220.1 47.7A41.1 41.1 0 0 0 223.1 50.3 47.8 47.8 0 0 0 224.3 51.2 120.4 120.4 0 0 0 228.9 54.4 109 109 0 0 0 229 54.4Q231.3 56 233.2 57.1A172.5 172.5 0 0 0 234.1 57.7Q235 58.2 235.7 58.6A42.6 42.6 0 0 0 236.2 58.9Q236.6 59.2 237.8 59.8A181.9 181.9 0 0 0 239 60.4 239 239 0 0 0 240.4 61 109.8 109.8 0 0 1 241.7 61.7 89.9 89.9 0 0 1 243 62.4 296.8 296.8 0 0 0 243.6 62.7Q244.4 63.1 244.8 63.3 245.4 63.5 246.3 63.6A16.8 16.8 0 0 0 247.1 63.7 98.5 98.5 0 0 1 250 64.1 12.3 12.3 0 0 1 251.1 64.3Q251.7 64.4 252.2 64.6A6.7 6.7 0 0 1 252.5 64.7 1.9 1.9 0 0 1 253 65Q253.5 65.5 253.5 66.2A0.3 0.3 0 0 1 253.5 66.3Q253.5 66.3 253.5 66.3A0.1 0.1 0 0 1 253.5 66.4Q253.4 66.4 253.4 66.5A0.3 0.3 0 0 0 253.4 66.5L253.4 66.7A1 1 0 0 0 253.3 66.8Q253.2 66.9 253 67A4.4 4.4 0 0 0 252.9 67.1 4 4 0 0 1 252.8 67.2Q252.6 67.4 252.4 67.5L251.9 67.5A8.9 8.9 0 0 0 251.3 67.5 10.5 10.5 0 0 0 251 67.5 9.8 9.8 0 0 1 250.3 67.6 8.3 8.3 0 0 1 250 67.6L249.4 67.6A23.6 23.6 0 0 1 241.6 66.2 27.3 27.3 0 0 1 240.4 65.8Q235.9 64 231.7 61.3A83.7 83.7 0 0 1 223.7 55.5Q219.9 52.3 216.7 49.5ZM214 18.8A96.1 96.1 0 0 0 214.1 16.1Q214.1 14 214.5 12.1A11.2 11.2 0 0 1 216.7 7.6Q219.3 4.4 224.9 4.4 226.8 4.4 228.5 4.7 230.3 5 231.6 5.8A6.7 6.7 0 0 1 233.9 8.1 5 5 0 0 1 234.2 8.7Q234.5 9.4 234.7 10.2A9.4 9.4 0 0 1 234.8 11.7Q234.8 12.7 234.2 14A12.4 12.4 0 0 1 233.6 15.2 29 29 0 0 1 232.4 17.2 37.7 37.7 0 0 1 230.7 19.5 53.4 53.4 0 0 1 229.5 20.9 63 63 0 0 1 226.7 23.9 111.9 111.9 0 0 1 225.5 25.2 95.9 95.9 0 0 1 222.4 28.1Q220.3 30 218.6 31.4A104 104 0 0 1 218.4 31.5Q217.2 32.5 216.4 33.1A16.3 16.3 0 0 1 215.9 33.4 13.2 13.2 0 0 1 214.4 29.4Q214 27.2 213.9 25A69.1 69.1 0 0 1 213.9 23.5 71.5 71.5 0 0 1 214 20.5 113.8 113.8 0 0 0 214 18.8Z" vector-effect="non-scaling-stroke"/><path d="M257.3 44.5A49.7 49.7 0 0 0 257.2 45Q256.6 48.2 256.6 50.9A34.8 34.8 0 0 0 256.8 54.2 26.2 26.2 0 0 0 257.4 57.8Q258.1 60.8 259.8 63A10.4 10.4 0 0 0 261.2 64.5 11.5 11.5 0 0 0 264.3 66.4 12.4 12.4 0 0 0 265.6 66.9Q266.9 67.2 268.3 67.4A24.9 24.9 0 0 0 271.3 67.6 34.6 34.6 0 0 0 277.6 67 32.2 32.2 0 0 0 283.8 65.2Q286.8 64 289.5 62.2A21.9 21.9 0 0 0 294.2 58.1Q296.2 55.8 297.4 52.8A15.8 15.8 0 0 0 297.9 51.1 17.5 17.5 0 0 0 298.5 46.5Q298.5 45.2 298.4 43.7A31.3 31.3 0 0 0 297.9 41.1 37.5 37.5 0 0 0 297.6 39.9 42 42 0 0 0 296.1 35 43.8 43.8 0 0 0 293.3 29 26.6 26.6 0 0 0 292.6 27.9 23.2 23.2 0 0 0 289.4 23.9 20.6 20.6 0 0 0 284.6 20.3 12 12 0 0 0 278.8 18.8 16.6 16.6 0 0 0 278.5 18.9 14.2 14.2 0 0 0 272.2 20.4 19.4 19.4 0 0 0 271.3 20.9 20.8 20.8 0 0 0 266.7 24.6 29.4 29.4 0 0 0 266.6 24.7 31.4 31.4 0 0 0 262.3 30.6Q260.4 33.9 259.1 37.5A35.8 35.8 0 0 0 259.1 37.5 48.4 48.4 0 0 0 257.3 44.5ZM273.7 23.1L273.7 23.6 273.7 24A0.3 0.3 0 0 0 273.7 24.1Q273.8 24.2 273.9 24.5 274 24.9 274.2 25.3A5.8 5.8 0 0 1 274.4 25.8 4.4 4.4 0 0 1 274.5 26.2Q274.6 26.6 274.6 26.7A2.5 2.5 0 0 1 274.6 27.2Q274.5 27.5 274.4 27.7A1.3 1.3 0 0 1 274.1 28 3 3 0 0 1 273 28.6 8 8 0 0 1 272.1 28.8 9.4 9.4 0 0 1 271.6 28.9Q270.9 29 270.3 29.2 267.1 30.6 265.1 33.3 263.1 36 262 39.4A33.3 33.3 0 0 0 260.4 46.4Q260.1 50 260.1 53 260.1 55.8 260.9 57.8A8.7 8.7 0 0 0 262.2 59.9 7.6 7.6 0 0 0 263.4 61 9.4 9.4 0 0 0 266.1 62.4 11.4 11.4 0 0 0 267.1 62.7 17.6 17.6 0 0 0 269.7 63.2 22.9 22.9 0 0 0 271.9 63.3 38.4 38.4 0 0 0 280.2 62.4Q284.4 61.4 287.7 59.3 291 57.2 293.1 54 295.2 50.7 295.2 46A19.1 19.1 0 0 0 295.1 43.6Q294.8 41.5 294.1 39A35.4 35.4 0 0 0 290.9 31.2Q288.9 27.4 285.9 24.9A10.9 10.9 0 0 0 282.9 23 9.4 9.4 0 0 0 279.3 22.3 31.2 31.2 0 0 0 278.1 22.3Q277.6 22.3 277.1 22.3A14.1 14.1 0 0 0 276.5 22.4 9.1 9.1 0 0 0 275.7 22.6Q275.2 22.7 274.8 22.8A21.8 21.8 0 0 0 273.7 23.1Z" vector-effect="non-scaling-stroke"/><path d="M329.2 41.9L328.4 41.9A8.9 8.9 0 0 0 328.3 42.2Q328.1 42.8 327.9 43.9A81.8 81.8 0 0 1 327.4 46 95.6 95.6 0 0 1 327.1 47 607.2 607.2 0 0 0 326.7 48.6 525.1 525.1 0 0 0 326.3 50.1 64.1 64.1 0 0 0 326.1 50.8Q325.9 51.6 325.8 52A6.2 6.2 0 0 0 325.8 52.1 47.5 47.5 0 0 0 325.3 53.6Q325 54.4 324.7 55.2A84.1 84.1 0 0 0 324.6 55.8 20.3 20.3 0 0 1 322.9 59.8 11.2 11.2 0 0 1 321 62.3 10.3 10.3 0 0 1 320.4 62.9 5.4 5.4 0 0 1 317.2 64.1 6.9 6.9 0 0 1 316.7 64.2 9.2 9.2 0 0 1 313.8 63.7 8 8 0 0 1 311.5 62.5 12.6 12.6 0 0 1 308.6 59.5 15.5 15.5 0 0 1 307.8 58.1 24.4 24.4 0 0 1 306.1 54.1 29.6 29.6 0 0 1 305.5 52Q304.7 48.5 304.2 45.1A86.6 86.6 0 0 1 303.8 40.1 75.1 75.1 0 0 1 303.7 38.4 164.4 164.4 0 0 1 303.6 36.2Q303.5 35.3 303.5 34.5A83 83 0 0 1 303.5 33 33.3 33.3 0 0 0 303.5 32.3Q303.5 31 303.4 29.2A26.1 26.1 0 0 1 303.3 27.7 26.2 26.2 0 0 1 303.5 24.5 12.2 12.2 0 0 1 304 22.4 9 9 0 0 1 304.8 20.4 3.4 3.4 0 0 1 307.2 18.7 5 5 0 0 1 308.1 18.7Q308.1 19.1 308.1 20.3A245.2 245.2 0 0 1 308.1 20.9 960.6 960.6 0 0 0 308 22.5 1140.2 1140.2 0 0 0 308 24.3 138.1 138.1 0 0 0 307.9 26 116.3 116.3 0 0 0 307.9 27.7L307.9 30Q307.9 30.2 307.8 30.8A27.1 27.1 0 0 1 307.8 30.9 44.7 44.7 0 0 0 307.6 31.7 58.2 58.2 0 0 0 307.5 32.5 58.2 58.2 0 0 1 307.3 33.4 44.7 44.7 0 0 1 307.2 34.1 15.4 15.4 0 0 0 307.1 34.5Q307 34.9 307 35.1A1.3 1.3 0 0 0 307 35.2 6.7 6.7 0 0 0 307 35.5Q307.1 36.2 307.2 37.6A111.8 111.8 0 0 0 307.4 39.6 134.8 134.8 0 0 0 307.7 41.7 303.7 303.7 0 0 1 308.1 44.8 272.1 272.1 0 0 1 308.3 45.9Q308.5 47.9 308.7 48.7 308.9 50.1 309.5 52 310.1 53.9 311 55.7A13.4 13.4 0 0 0 312.5 57.9 11.7 11.7 0 0 0 313.3 58.7 4.4 4.4 0 0 0 316.5 60 3.7 3.7 0 0 0 319.4 58.6 5.7 5.7 0 0 0 320 57.7 16.4 16.4 0 0 0 321.1 55.4Q321.5 54.2 321.9 52.8A28.9 28.9 0 0 0 322 52.2 59 59 0 0 0 322.7 48.8 76.3 76.3 0 0 0 323.2 45 161.3 161.3 0 0 1 323.7 41.2 122.7 122.7 0 0 1 324.2 37.7 40.8 40.8 0 0 1 324.6 35.4Q325 33.6 325.5 32.2 325.9 31.1 326.5 30.6A2 2 0 0 1 327.9 30L328.4 30 328.8 30.4 329.2 30.8A112 112 0 0 0 332.1 38.6 123.6 123.6 0 0 0 332.6 39.7Q334.6 44.2 337.1 48.5A58.3 58.3 0 0 0 342.7 56.6 41.5 41.5 0 0 0 349.7 63.3L350.3 63.3 351 63.3A3.6 3.6 0 0 0 352 63.2 2.4 2.4 0 0 0 353.5 62 15.6 15.6 0 0 0 354.2 60.5Q354.5 59.8 354.8 58.9 355 58.1 355.4 56.4A87.7 87.7 0 0 0 356.3 53 359.6 359.6 0 0 1 356.6 51.3 274.7 274.7 0 0 1 357 49.8 40.9 40.9 0 0 0 357.1 49.3Q357.3 48.3 357.3 48L357.3 46.7A62.6 62.6 0 0 1 357.3 45.7Q357.3 45.1 357.4 44.5A109.2 109.2 0 0 1 357.4 44.1Q357.4 42.7 357.4 41.1L357.4 38.7 357.4 35.7A131.9 131.9 0 0 0 357.4 32.2Q357.3 30.4 357.3 29L357.3 27.4Q357.2 25.3 357.1 24.1A7.7 7.7 0 0 0 356.9 23Q356.7 22.5 356.5 22A4.7 4.7 0 0 0 356.5 22 4.7 4.7 0 0 0 355.5 20.7 5.5 5.5 0 0 0 355.2 20.4Q354.4 19.7 353 18.8L353 18.6Q353 17.4 353.3 16.6A5.2 5.2 0 0 1 353.3 16.4 1.2 1.2 0 0 1 354.2 15.5Q354.4 15.5 354.7 15.4A3.5 3.5 0 0 1 355 15.4Q356.8 15.4 357.8 16.2A3.1 3.1 0 0 1 358.4 17Q358.8 17.7 359.1 18.8 359.2 19.6 359.3 20.7A92.5 92.5 0 0 0 359.4 21.4 120.7 120.7 0 0 1 359.7 23.1 160.1 160.1 0 0 1 359.9 25 190.5 190.5 0 0 0 360.4 29 379.1 379.1 0 0 1 360.7 30.9 324.2 324.2 0 0 1 361 32.8 180.8 180.8 0 0 1 361.2 34.1Q361.2 34.6 361.3 35A96.7 96.7 0 0 1 361.4 35.9Q361.5 37 361.5 37.4A3.7 3.7 0 0 1 361.5 37.6L361.5 38.4Q361.5 39 361.6 39.7A22 22 0 0 1 361.6 41.2L361.6 42.4A29.5 29.5 0 0 1 361.6 43.4Q361.6 44.6 361.4 46.3A63.5 63.5 0 0 1 361.1 49.4 78.2 78.2 0 0 1 360.8 51.5Q360.4 54.3 359.6 57.2 358.9 60.1 357.7 62.4A14.9 14.9 0 0 1 356.3 64.5 11.7 11.7 0 0 1 354.8 66.1 5.6 5.6 0 0 1 351 67.6Q350.7 67.6 350.1 67.5A67.1 67.1 0 0 1 349.9 67.5Q349.1 67.5 348.8 67.5A5 5 0 0 0 348.7 67.5 143.7 143.7 0 0 1 345.8 64.7Q344.5 63.4 343.4 62.2A83.7 83.7 0 0 1 342.7 61.4 69.2 69.2 0 0 1 338 55.7 101.8 101.8 0 0 1 334.3 50.3 111.5 111.5 0 0 1 333.8 49.5 274.1 274.1 0 0 1 331.9 46.4Q330.9 44.8 329.9 43.1A468.8 468.8 0 0 1 329.2 41.9Z" vector-effect="non-scaling-stroke"/></g></svg>